Genre:Animation | Comedy | Family
Language:English
IMDb:http://www.imdb.com/title/tt1323594/
Source: NTSC DVDR


General
Complete name :Despicable.Me.2010.DvDRip.H264.Feel-Free
Format : MPEG-4
Format profile : Base Media
Codec ID : mp42
File size : 730 MiB
Duration : 1h 30mn
Overall bit rate : 1 123 Kbps
Video #1
Codec ID : avc1
Codec ID/Info : Advanced Video Coding
Duration : 1h 30mn
Bit rate mode : Variable
Bit rate : 738 Kbps
Width : 720 pixels
Height : 384 pixels
Display aspect ratio : 1.875
Frame rate mode : Constant
Frame rate : 23.976 fps
Resolution : 24 bits
Colorimetry : 4:2:0
Scan type : Progressive
Bits/(Pixel*Frame) : 0.111
Stream size : 479 MiB (66%)
Audio #2
ID : 2
Format : AAC
Format/Info : Advanced Audio Codec
Format version : Version 4
Format profile : LC
Format settings, SBR : No
Codec ID : 40
Duration : 1h 30mn
Bit rate mode : Constant
Bit rate : 384 Kbps
Channel(s) : 6 channels
Channel positions : Front: L C R, Rear: L R, LFE
Sampling rate : 48.0 KHz
Resolution : 16 bits
Stream size : 248 MiB (34%)

Plot:
A trio of orphan girls cause the normally deplorable Gru to rethink his plan to steal the moon



================================== 
http://thepiratebay.org/user/hiest
==================================


Screenshots:
 
http://rapidhdd.com/images/227210vlcsnap-2010-11-28-10h47m36s244.png
 
http://www.rapidhdd.com/images/341627vlcsnap-2010-11-28-10h47m40s34.png
 
http://www.rapidhdd.com/images/255336vlcsnap-2010-11-28-10h48m03s253.png
 
http://www.rapidhdd.com/images/45773vlcsnap-2010-11-28-10h49m20s12.png
 
http://www.rapidhdd.com/images/887020vlcsnap-2010-11-28-10h49m30s110.png
 
http://www.rapidhdd.com/images/2149vlcsnap-2010-11-28-10h49m36s171.png